<?xml version="1.0" encoding="utf-8"?>
<!-- Generator: Adobe Illustrator 22.1.0, SVG Export Plug-In . SVG Version: 6.00 Build 0)  -->
<svg version="1.1" id="Layer_1" xmlns="http://www.w3.org/2000/svg" xmlns:xlink="http://www.w3.org/1999/xlink" x="0px" y="0px"
	 viewBox="0 0 134 30" style="enable-background:new 0 0 134 30;" xml:space="preserve">
<style type="text/css">
	.st0{opacity:0.5;}
</style>
<path class="st0" d="M7.1,9.6c0,0.2,0,1.6,0,1.6c0,0.4,0.1,0.5,0.3,0.5h0.3c0,0,0.1,0,0.1,0.1v0.2c0,0.1,0,0.1-0.1,0.1
	c-0.1,0-0.7,0-1,0c-0.2,0-0.9,0-1.1,0c-0.1,0-0.1,0-0.1-0.1v-0.3c0,0,0-0.1,0.1-0.1H6c0.2,0,0.2-0.1,0.2-0.4c0-0.2,0-1.3,0-1.5V9.8
	c0-0.1,0-0.1-0.2-0.1H3.6c-0.1,0-0.1,0-0.1,0.1v0.1c0,0.2,0,1.3,0,1.5c0,0.3,0.1,0.4,0.2,0.4h0.3c0,0,0.1,0,0.1,0.1v0.2
	c0,0,0,0.1-0.1,0.1c-0.1,0-0.7,0-1,0c-0.2,0-0.9,0-1.1,0c-0.1,0-0.1,0-0.1-0.1v-0.3c0-0.1,0-0.1,0.1-0.1h0.3c0.3,0,0.3-0.2,0.3-0.4
	c0-0.1,0-1.5,0-1.7V9.4c0-0.4,0-1.3,0-1.4c0-0.3-0.1-0.4-0.3-0.4H2c-0.1,0-0.1,0-0.1-0.1V7.3c0-0.1,0-0.1,0.1-0.1c0.1,0,0.8,0,1.1,0
	c0.2,0,0.9,0,1,0c0.1,0,0.1,0,0.1,0.1v0.2c0,0.1,0,0.1-0.1,0.1H3.8c-0.2,0-0.3,0.1-0.3,0.3c0,0.1,0,1,0,1.3v0.1c0,0.1,0,0.1,0.1,0.1
	h2.5c0.1,0,0.2,0,0.2-0.1V9.2c0-0.3,0-1.2,0-1.2c0-0.2-0.1-0.4-0.3-0.4H5.6c-0.1,0-0.1,0-0.1-0.1V7.2c0-0.1,0-0.1,0.1-0.1
	c0.1,0,0.8,0,1,0c0.2,0,0.8,0,0.9,0s0.1,0,0.1,0.1v0.2c0,0,0,0.1-0.1,0.1H7.3c-0.2,0-0.2,0.1-0.2,0.3c0,0.2,0,1.3,0,1.5V9.6z"/>
<path class="st0" d="M10.6,10.2l-0.4,1.2c-0.1,0.2,0,0.4,0.2,0.4h0.3c0.1,0,0.1,0,0.1,0.1v0.2c0,0,0,0.1-0.1,0.1c-0.1,0-0.7,0-0.8,0
	c-0.2,0-0.8,0-0.9,0c0,0,0-0.1,0-0.1v-0.2c0,0,0-0.1,0-0.1h0.2c0.2,0,0.4-0.1,0.5-0.2c0.1-0.1,0.6-1.4,0.9-2
	c0.1-0.2,0.7-1.7,0.8-1.8c0-0.1,0.1-0.2,0-0.2c0,0-0.1-0.1,0-0.1c0,0,0-0.1,0.1-0.1c0.2,0,0.5-0.2,0.6-0.3C12,7,12,7,12.1,7
	s0.1,0,0.1,0.1c0.2,0.4,0.7,2,0.9,2.5c0.2,0.5,0.6,1.8,0.7,2c0.1,0.2,0.3,0.3,0.5,0.3h0.2c0,0,0.1,0,0.1,0.1v0.2c0,0,0,0.1-0.1,0.1
	c-0.1,0-0.7,0-1,0c-0.2,0-0.9,0-1,0c-0.1,0-0.1-0.1-0.1-0.1v-0.2c0,0,0-0.1,0.1-0.1h0.2c0.1,0,0.2-0.1,0.2-0.2
	c0-0.2-0.3-1.1-0.4-1.4H10.6z M12.3,9.9L11.7,8c0-0.1,0-0.1-0.1-0.1s-0.1,0-0.1,0.1c0,0.1-0.7,1.8-0.8,1.9H12.3z"/>
<path class="st0" d="M16.4,7.9c0-0.2-0.1-0.3-0.4-0.3h-0.1c0,0,0,0,0-0.1V7.2c0,0,0-0.1,0.1-0.1c0.1,0,0.7,0,0.9,0
	c0.1,0,1.1,0,1.2,0c0.7,0,1.2,0.2,1.4,0.4c0.2,0.2,0.4,0.6,0.4,0.8c0,0.8-0.4,1.2-1.3,1.5v0c0.3,0.1,0.5,0.4,0.9,1
	c0.2,0.2,0.4,0.5,0.6,0.7c0.2,0.1,0.3,0.1,0.5,0.1c0,0,0.1,0,0.1,0.1v0.2c0,0,0,0.1-0.1,0.1c0,0-0.1,0-0.2,0c-0.1,0-0.2,0-0.3,0
	c-0.3,0-0.5,0-0.7,0c-0.2-0.2-0.7-1-0.8-1.2c-0.4-0.7-0.6-0.9-1-0.9c-0.1,0-0.2,0-0.3,0v1.5c0,0.2,0.1,0.3,0.3,0.3h0.3
	c0,0,0.1,0,0.1,0.1v0.3c0,0.1,0,0.1-0.1,0.1c-0.1,0-0.7,0-1,0c-0.3,0-0.8,0-0.9,0c0,0-0.1,0-0.1-0.1v-0.3c0,0,0-0.1,0.1-0.1H16
	c0.3,0,0.4,0,0.4-0.3c0-0.5,0-1.2,0-1.9V7.9z M17.2,9.7c0.1,0,0.2,0,0.3,0c1.2,0,1.4-0.9,1.4-1.1c0-0.3-0.2-0.6-0.4-0.8
	c-0.3-0.2-0.6-0.3-1-0.3c-0.2,0-0.3,0-0.3,0.2V9.7z"/>
<path class="st0" d="M26.6,12c0,0.1,0,0.2-0.2,0.2c-0.1,0-0.2-0.1-0.3-0.1c-0.1-0.1-0.5-0.5-0.9-1.1l-1.1-1.3
	C24,9.4,23.1,8.2,22.9,8h0v1.5c0,0.7,0,1.8,0.1,1.9c0,0.3,0.2,0.4,0.3,0.4h0.2c0.1,0,0.1,0,0.1,0.1v0.3c0,0,0,0.1-0.1,0.1
	c-0.1,0-0.5,0-0.8,0c-0.2,0-0.6,0-0.7,0c0,0,0,0,0-0.1v-0.3c0,0,0,0,0,0h0.3c0.1,0,0.3-0.1,0.3-0.3c0-0.1,0-0.9,0-2.2V8.1
	c0-0.4-0.3-0.6-0.6-0.6h-0.1c0,0-0.1,0-0.1-0.1V7.2c0,0,0-0.1,0.1-0.1c0,0,0.1,0,0.3,0c0.1,0,0.3,0,0.4,0c0.2,0,0.4,0,0.5,0
	c0.2,0,0.2,0,0.3,0.1c0,0,1.3,1.6,1.5,1.9c0.2,0.2,1.2,1.5,1.4,1.7h0v-0.7c0-0.6,0-1,0-1.3c0-0.3,0-0.9-0.1-1
	c-0.1-0.1-0.2-0.2-0.4-0.2h-0.2c-0.1,0-0.1,0-0.1-0.1V7.2c0,0,0-0.1,0.1-0.1c0.1,0,0.5,0,0.9,0c0.2,0,0.6,0,0.7,0
	c0.1,0,0.1,0,0.1,0.1v0.2c0,0,0,0.1-0.1,0.1H27c-0.3,0-0.3,0.1-0.4,0.2c-0.1,0.5,0,1.2,0,1.6V12z"/>
<path class="st0" d="M30.1,9.4c0.1,0,0.7,0,0.8-0.1c0.3-0.1,0.4-0.2,0.4-0.6c0,0,0-0.1,0.1-0.1l0.2,0c0,0,0.1,0,0.1,0.1
	c0,0.1,0,0.7,0,0.8c0,0.2,0,0.6,0,0.7c0,0,0,0.1-0.1,0.1l-0.2,0c0,0-0.1,0-0.1,0c-0.1-0.3-0.1-0.5-0.4-0.5c-0.3-0.1-0.7-0.1-0.8-0.1
	v0.4c0,0.4,0,1,0,1.2c0,0.5,0.3,0.5,0.8,0.5c0.5,0,0.8,0,1.2-0.3c0.1-0.1,0.5-0.6,0.6-0.7c0.1-0.1,0.1-0.1,0.1-0.1l0.2,0.1
	c0,0,0,0,0,0.1l-0.4,1.2c0,0.1-0.1,0.1-0.1,0.1c0,0-0.2,0-0.6,0c-0.4,0-1.2,0-2.3,0c-0.1,0-0.3,0-0.5,0c-0.2,0-0.4,0-0.4,0
	c-0.1,0-0.1,0-0.1-0.1v-0.3c0,0,0-0.1,0.1-0.1h0.1c0.5,0,0.5,0,0.5-0.2V9.2c0-0.6,0-1.3,0-1.4c0-0.2-0.1-0.3-0.5-0.3h-0.1
	c0,0,0,0,0-0.1V7.2c0,0,0-0.1,0.1-0.1c0.2,0,0.8,0,0.9,0l2.5,0c0.1,0,0.3,0,0.3,0c0,0,0,0,0.1,0.2c0,0.1,0.3,1,0.4,1.1
	c0,0,0,0.1,0,0.1l-0.2,0.1c0,0-0.1,0-0.1,0c0,0-0.5-0.6-0.7-0.8c-0.1-0.1-0.3-0.2-0.4-0.2l-1.2,0V9.4z"/>
<path class="st0" d="M36.8,10.8c0,0.3,0,0.6,0,0.7c0,0.2,0.2,0.2,0.4,0.2h0.1c0.1,0,0.1,0,0.1,0.1v0.3c0,0,0,0.1-0.1,0.1s-0.7,0-1,0
	c-0.2,0-0.9,0-0.9,0c-0.1,0-0.1,0-0.1-0.1v-0.2c0,0,0-0.1,0.1-0.1h0.2c0.4,0,0.4-0.1,0.4-0.2c0-0.1,0-0.5,0-1.1V10
	c-0.1-0.2-1.4-2.2-1.6-2.3c-0.1-0.1-0.3-0.1-0.4-0.1h-0.2c-0.1,0-0.1,0-0.1-0.1V7.2c0,0,0-0.1,0.1-0.1c0.1,0,0.6,0,0.9,0
	c0.2,0,1,0,1.1,0c0,0,0.1,0,0.1,0.1v0.2c0,0,0,0.1-0.1,0.1h-0.2c-0.2,0-0.2,0.1-0.2,0.2c0.1,0.1,1,1.6,1.2,1.8
	c0.2-0.3,1.1-1.6,1.1-1.7c0.1-0.2,0.1-0.3-0.1-0.3h-0.2c-0.1,0-0.1,0-0.1-0.1V7.2c0,0,0-0.1,0.1-0.1c0.1,0,0.6,0,0.9,0
	c0.2,0,0.6,0,0.6,0c0.1,0,0.1,0,0.1,0.1v0.2c0,0.1,0,0.1-0.1,0.1h-0.1c-0.2,0-0.3,0-0.4,0.1c-0.2,0.1-1.4,1.9-1.7,2.3V10.8z"/>
<path class="st0" d="M43.4,11.7c-0.5-0.5-0.8-1.3-0.8-2c0-0.7,0.2-1.3,0.7-1.9c0.3-0.3,0.9-0.7,1.8-0.7c0.7,0,1.1,0.2,1.4,0.3
	c0.1,0.1,0.2,0.1,0.2,0l0-0.1c0,0,0-0.1,0.1-0.1c0.1,0,0.2,0,0.2,0.1c0,0.1,0.1,1.2,0.1,1.4c0,0.1,0,0.1,0,0.1l-0.3,0
	c0,0-0.1,0-0.1-0.1c-0.1-0.3-0.2-0.6-0.5-0.9c-0.3-0.3-0.7-0.5-1.2-0.5c-1.1,0-1.6,1.1-1.6,2c0,0.4,0.1,1.2,0.7,1.8
	c0.4,0.4,0.7,0.5,1.2,0.5c0.8,0,1.4-0.4,1.7-0.8c0-0.1,0.1-0.1,0.1-0.1l0.2,0.1c0,0,0,0.1,0,0.1c-0.4,0.7-1.1,1.2-2.1,1.2
	C44.3,12.3,43.8,12,43.4,11.7z"/>
<path class="st0" d="M49.4,11.8c-0.4-0.3-1-1-1-2.1c0-0.5,0.1-1.1,0.6-1.7c0.6-0.8,1.3-0.9,2.1-0.9c0.5,0,1.1,0.1,1.7,0.6
	c0.5,0.4,0.9,1.1,0.9,2.1c0,0.5-0.1,1.1-0.4,1.5c-0.4,0.6-1.1,1-2.2,1C50.6,12.3,50,12.2,49.4,11.8z M52.7,9.8c0-1.4-1-2.3-1.6-2.3
	c-0.1,0-0.6-0.1-1.1,0.4c-0.4,0.4-0.6,1.1-0.6,1.7c0,1.7,1.2,2.4,1.7,2.4C52.6,11.9,52.7,10.4,52.7,9.8z"/>
<path class="st0" d="M55.2,7.9c0-0.2,0-0.4-0.4-0.4h-0.2c0,0-0.1,0-0.1-0.1V7.2c0,0,0-0.1,0.1-0.1c0.1,0,0.8,0,1.1,0
	c0.3,0,0.9,0,1,0c0.1,0,0.1,0,0.1,0.1v0.3c0,0,0,0.1-0.1,0.1h-0.2c-0.4,0-0.5,0.1-0.5,0.2c0,0.1,0,0.5,0,0.9v0.5c0,0.4,0,1.2,0,1.4
	c0,0.3,0.1,0.6,0.3,0.9c0.3,0.3,0.7,0.5,1,0.5c0.4,0,0.8-0.1,1-0.4c0.3-0.3,0.4-0.7,0.4-1.1V8.9c0-0.5,0-0.9,0-1
	c0-0.2-0.1-0.3-0.5-0.3h-0.1c0,0-0.1,0-0.1-0.1V7.2c0,0,0-0.1,0.1-0.1c0.1,0,0.7,0,1,0c0.2,0,0.7,0,0.8,0c0.1,0,0.1,0,0.1,0.1v0.2
	c0,0,0,0.1-0.1,0.1h-0.1c-0.4,0-0.4,0.2-0.5,0.3c0,0.1,0,0.9,0,1.1c0,0.1,0,1.3,0,1.6c0,0.6-0.2,1-0.6,1.4c-0.3,0.3-0.7,0.4-1.5,0.4
	c-0.4,0-0.8,0-1-0.1c-0.5-0.2-0.7-0.5-0.9-0.9c-0.1-0.3-0.1-0.8-0.1-1.7V7.9z"/>
<path class="st0" d="M66.1,12c0,0.1,0,0.2-0.2,0.2c-0.1,0-0.2-0.1-0.3-0.1c-0.1-0.1-0.5-0.5-0.9-1.1l-1.1-1.3
	c-0.3-0.3-1.2-1.5-1.3-1.7h0v1.5c0,0.7,0,1.8,0.1,1.9c0,0.3,0.2,0.4,0.3,0.4h0.2c0.1,0,0.1,0,0.1,0.1v0.3c0,0,0,0.1-0.1,0.1
	c-0.1,0-0.5,0-0.8,0c-0.2,0-0.6,0-0.7,0c0,0,0,0,0-0.1v-0.3c0,0,0,0,0,0h0.3c0.1,0,0.3-0.1,0.3-0.3c0-0.1,0-0.9,0-2.2V8.1
	c0-0.4-0.3-0.6-0.6-0.6h-0.1c0,0-0.1,0-0.1-0.1V7.2c0,0,0-0.1,0.1-0.1c0,0,0.1,0,0.3,0c0.1,0,0.3,0,0.4,0c0.2,0,0.4,0,0.5,0
	c0.2,0,0.2,0,0.3,0.1c0,0,1.3,1.6,1.5,1.9c0.2,0.2,1.2,1.5,1.4,1.7h0v-0.7c0-0.6,0-1,0-1.3c0-0.3,0-0.9-0.1-1
	c-0.1-0.1-0.2-0.2-0.4-0.2H65c-0.1,0-0.1,0-0.1-0.1V7.2c0,0,0-0.1,0.1-0.1c0.1,0,0.5,0,0.9,0c0.2,0,0.6,0,0.7,0c0.1,0,0.1,0,0.1,0.1
	v0.2c0,0,0,0.1-0.1,0.1h-0.1c-0.3,0-0.3,0.1-0.4,0.2c-0.1,0.5,0,1.2,0,1.6V12z"/>
<path class="st0" d="M70.1,7.6c-0.2,0-0.9,0-1.4,0.1c-0.3,0.2-0.5,0.6-0.6,0.8c0,0-0.1,0.1-0.1,0.1l-0.2-0.1c-0.1,0-0.1-0.1,0-0.1
	c0.1-0.2,0.3-1.1,0.4-1.3C68.1,7,68.2,7,68.2,7c0,0,0.1,0,0.1,0l0.1,0.1c0.1,0.1,0.2,0.1,0.4,0.1c0.4,0,0.8,0,1.4,0h0.4
	c0.4,0,1.1,0,1.6,0c0.2,0,0.3,0,0.4-0.1L72.8,7c0,0,0.1,0,0.1,0c0,0,0.1,0,0.1,0.2c0,0.2,0.2,0.9,0.3,1.2c0,0,0,0.1-0.1,0.1L73,8.6
	c-0.1,0-0.1,0-0.1,0c-0.1-0.3-0.3-0.6-0.5-0.8c-0.3-0.1-1.2-0.1-1.4-0.1v1.8c0,1.2,0,2,0,2.1c0,0.2,0.1,0.3,0.3,0.3h0.4
	c0.1,0,0.1,0,0.1,0.1v0.2c0,0,0,0.1-0.1,0.1c-0.1,0-0.8,0-1.1,0c-0.3,0-1,0-1.1,0c-0.1,0-0.1,0-0.1-0.1v-0.2c0-0.1,0-0.1,0.1-0.1
	h0.4c0.2,0,0.2-0.1,0.3-0.2c0-0.4,0-1,0-1.7V7.6z"/>
<path class="st0" d="M77.1,10.8c0,0.3,0,0.6,0,0.7c0,0.2,0.2,0.2,0.4,0.2h0.1c0.1,0,0.1,0,0.1,0.1v0.3c0,0,0,0.1-0.1,0.1
	c-0.1,0-0.7,0-1,0c-0.2,0-0.9,0-0.9,0c-0.1,0-0.1,0-0.1-0.1v-0.2c0,0,0-0.1,0.1-0.1h0.2c0.4,0,0.4-0.1,0.4-0.2c0-0.1,0-0.5,0-1.1V10
	c-0.1-0.2-1.4-2.2-1.6-2.3c-0.1-0.1-0.3-0.1-0.4-0.1h-0.2c-0.1,0-0.1,0-0.1-0.1V7.2c0,0,0-0.1,0.1-0.1s0.6,0,0.9,0c0.2,0,1,0,1.1,0
	c0,0,0.1,0,0.1,0.1v0.2c0,0,0,0.1-0.1,0.1h-0.2c-0.2,0-0.2,0.1-0.2,0.2c0.1,0.1,1,1.6,1.2,1.8C77.1,9.3,78,8,78.1,7.9
	c0.1-0.2,0.1-0.3-0.1-0.3h-0.2c-0.1,0-0.1,0-0.1-0.1V7.2c0,0,0-0.1,0.1-0.1c0.1,0,0.6,0,0.9,0c0.2,0,0.6,0,0.6,0
	c0.1,0,0.1,0,0.1,0.1v0.2c0,0.1,0,0.1-0.1,0.1h-0.1c-0.2,0-0.3,0-0.4,0.1c-0.2,0.1-1.4,1.9-1.7,2.3V10.8z"/>
<path d="M92.8,8.2c-0.3,0.4-1.3,1.8-2.1,2.7c-1.7,1.8-3.3,2.4-4.9,2.4c-1.7,0-3.5-1.1-3.5-3.6c0-1.7,1.1-3.2,2.9-3.2
	c1,0,1.2,0.6,1.2,0.9c0,0.6-0.4,0.9-0.9,0.9c-0.4,0-0.6-0.2-0.7-0.4c-0.3-0.3-0.5-0.3-0.7-0.3C83.9,7.5,83,8,83,9.3
	c0,2,1.8,2.5,3.1,2.5c2.7,0,4.7-2.1,6.9-4.9c1.6-2.1,3.1-3.9,3.8-4.6c0.8-0.7,1.6-1.1,3-1.1c1.2,0,2.1,0.4,2.1,1
	c0,0.2-0.2,0.4-0.4,0.4c-0.3,0-0.5-0.2-0.6-0.4c-0.1-0.1-0.4-0.3-0.6-0.3c-0.3,0-0.5,0.2-0.7,1l-2.4,7.3c-0.1,0.4-0.2,0.7-0.2,0.9
	c0,0.3,0.1,0.4,0.4,0.4h0.6c0.1,0,0.1,0,0.1,0.1l0,0.4c0,0.1,0,0.1-0.2,0.1c-0.2,0-0.8,0-2.4,0c-1.4,0-1.9,0-2.2,0
	c-0.1,0-0.2-0.1-0.1-0.2l0-0.3c0-0.1,0-0.1,0.1-0.1h0.4c0.5,0,0.9-0.1,1.2-0.9l0.8-2.5H92.8z M95.8,7.6l1.6-4.7
	c0.1-0.2,0-0.3-0.1-0.3c-0.1,0-0.2,0.1-0.4,0.3c-0.6,0.6-2.7,3.3-3.6,4.8H95.8z"/>
<path d="M100,12.2c-0.1,0-0.2-0.1-0.1-0.1l0.8-2.6c0.3-0.9,0.8-2.5,0.8-2.8c0-0.2-0.1-0.3-0.3-0.3c-0.3,0-0.8,0.5-1.1,0.9
	c-0.1,0.1-0.1,0.1-0.2,0.1l-0.2-0.1c0,0,0-0.1,0-0.2c0.3-0.5,1.2-1.6,2.6-1.6c0.6,0,0.8,0.3,0.8,0.6c0,0.3-0.3,1.1-0.7,2.1l0.2,0.1
	c0.4-0.9,1.4-2.8,2.5-2.8c0.5,0,0.9,0.4,0.9,0.9c0,0.6-0.4,1-0.7,1c-0.2,0-0.4,0-0.5-0.1c-0.1-0.1-0.2-0.2-0.4-0.2
	c-0.5,0-1.4,1.3-1.7,2.1c-0.2,0.4-0.3,0.8-0.5,1.4l-0.5,1.6c0,0.1-0.1,0.1-0.2,0.1H100z"/>
<path d="M110,5.8h1.6c0.1,0,0.1,0,0.1,0.1l-0.1,0.4c0,0.1-0.1,0.1-0.2,0.1h-1.6l-1.3,3.5c-0.1,0.3-0.2,0.7-0.2,0.8
	c0,0.2,0.1,0.3,0.4,0.3c0.3,0,1.3-0.7,1.4-0.8c0-0.1,0.1,0,0.1,0l0.2,0.2c0,0,0.1,0.1,0,0.1c-0.2,0.3-1.6,1.6-3.2,1.6
	c-0.6,0-0.8-0.3-0.8-0.6c0-0.3,0-0.7,0.2-1l1.5-4.2h-1.2c-0.1,0-0.1-0.1-0.1-0.2l0.1-0.4c0-0.1,0.1-0.1,0.2-0.1h1.3l0.5-1.7
	c0.1-0.2,0.1-0.2,0.5-0.2c0.4,0,1.3-0.4,1.4-0.5c0.1,0,0.2-0.1,0.3-0.1c0.1,0,0.2,0.2,0.1,0.3L110,5.8z"/>
<path d="M110.9,11.4c0-0.5,0.3-0.8,0.7-0.8c0.4,0,0.7,0.3,0.9,0.8c0.1,0.2,0.3,0.4,0.4,0.4c0.5,0,0.7-0.3,0.8-1.1
	c0-0.5-0.3-0.8-0.8-1.5c-0.5-0.8-0.7-1.1-0.7-1.7c0-1.1,0.9-2.1,2.7-2.1c0.6,0,1.4,0.2,1.4,1c0,0.5-0.3,0.8-0.7,0.8
	c-0.3,0-0.6-0.2-0.7-0.7c0-0.2-0.2-0.5-0.4-0.5c-0.3,0-0.6,0.1-0.6,0.9c0,0.6,0.6,1.2,0.8,1.6c0.5,0.6,0.6,1,0.6,1.6
	c0,1.3-0.9,2.3-2.7,2.3C111.5,12.3,110.9,11.9,110.9,11.4z"/>
<path d="M123.9,10.5c0,0,0.1,0.1,0,0.2c-0.1,0.1-1.1,1.7-3.1,1.7c-0.5,0-0.6-0.2-0.6-0.5c0-0.3,0.3-1,0.9-3l0.4-1.3
	c0.1-0.4,0.2-0.7,0.2-0.9c0-0.1-0.1-0.2-0.2-0.2c-0.3,0-1,0.8-1.2,1.1c-0.1,0.1-0.1,0.1-0.2,0l-0.1-0.1c0,0-0.1-0.1,0-0.1
	c0.1-0.1,1.4-2,3.1-2c0.5,0,0.7,0.3,0.7,0.6c0,0.4-0.2,0.8-0.5,1.8l-0.9,2.4c-0.2,0.6-0.3,0.8-0.3,1c0,0.1,0,0.2,0.2,0.2
	c0.3,0,1.1-0.8,1.2-1c0,0,0.1,0,0.1,0L123.9,10.5z M124.3,2.6c0,0.5-0.5,1.1-1.1,1.1c-0.6,0-1-0.4-1-1c0-0.5,0.4-1,1-1
	C124,1.7,124.3,2.1,124.3,2.6z"/>
<path d="M124.7,12.2c-0.1,0-0.2-0.1-0.1-0.2l1.1-3.1c0.4-1,0.7-2.1,0.7-2.3c0-0.2-0.1-0.3-0.2-0.3c-0.2,0-0.9,0.6-1.1,0.9
	c0,0-0.1,0.1-0.2,0l-0.2-0.2c-0.1,0-0.1-0.1,0-0.2c0.2-0.3,1.2-1.6,2.9-1.6c0.5,0,0.6,0.4,0.6,0.6c0,0.2-0.3,1.1-0.8,2.1l0.1,0.1
	c0.5-0.7,1.8-2.8,3.4-2.8c0.7,0,1,0.6,1,1.1c0,0.4-0.2,1-0.9,3c-0.4,1.1-0.5,1.4-0.5,1.6c0,0.2,0.1,0.3,0.2,0.3
	c0.2,0,0.7-0.5,0.9-0.7c0-0.1,0.1,0,0.2,0l0.1,0.1c0.1,0,0.1,0.1,0,0.2c-0.2,0.3-1.2,1.4-2.7,1.4c-0.5,0-0.6-0.3-0.6-0.6
	c0-0.3,0.3-1.2,0.8-2.7c0.3-0.7,0.6-1.8,0.6-2.1c0-0.3-0.1-0.4-0.3-0.4c-0.4,0-1.6,1.3-2.2,2.3c-0.4,0.6-0.7,1.1-0.8,1.3l-0.6,1.8
	c0,0.1-0.1,0.1-0.2,0.1H124.7z"/>
<path d="M7.5,22.1h1.2c0.6,0,1.2-0.1,1.9-1.3c0.1-0.1,0.1-0.1,0.2-0.1l0.3,0.1c0.1,0,0.1,0.1,0.1,0.1c-0.5,1.1-0.7,2.1-0.8,3.2
	c0,0.1-0.1,0.1-0.1,0.1l-0.3,0c-0.1,0-0.1,0-0.1-0.2c-0.1-1-0.7-1.3-1.7-1.3H7.4l-1.5,4.9h3.1c1.2,0,2.4-1.4,3.1-2.3
	c0.1-0.1,0.1-0.1,0.2-0.1l0.2,0.1c0,0,0.1,0.1,0,0.2l-0.8,2.3c-0.1,0.2-0.2,0.3-0.4,0.3c-0.2,0-1.3,0-2.7,0c-1.4,0-3.1,0-4.3,0
	c-0.7,0-1.2,0-1.5,0c-0.3,0-0.4,0-0.5,0c-0.1,0-0.2,0-0.1-0.2l0-0.3c0-0.1,0-0.1,0.1-0.1h0.4c0.6,0,0.9-0.4,1.1-0.9l2.4-7.6
	C6.6,18.2,6,18,5.6,18H5.1C5,18,5,18,5,17.9l0.1-0.4c0-0.1,0.1-0.1,0.2-0.1c0.2,0,0.7,0,2.4,0c3.1,0,4.6,0,5,0c0.2,0,0.3,0,0.3,0.3
	l0.5,2.2c0,0.1,0,0.1-0.1,0.1l-0.2,0.1c-0.1,0-0.1,0-0.2-0.1l-1.8-1.9C11.2,18,11.1,18,11,18H8.9L7.5,22.1z"/>
<path d="M21.9,17.3c0.2,0,0.3,0.2,0.2,0.3c-0.2,0.6-2.6,8-2.8,9c-0.1,0.4-0.1,0.7,0.1,0.7c0.2,0,0.8-0.7,0.9-0.8
	c0.1-0.1,0.1-0.1,0.2,0l0.2,0.2c0,0,0,0.1,0,0.2c-0.1,0.1-1.1,1.4-2.7,1.4c-0.4,0-0.6-0.2-0.6-0.5c0-0.4,0.3-1.3,0.6-2.1l-0.2-0.1
	c-0.8,1.2-1.8,2.7-3,2.7c-0.8,0-1.3-0.9-1.3-1.5c0-1,0.6-2.8,1.9-4.2c0.5-0.5,1.3-1.3,2.4-1.3c0.4,0,0.9,0.2,1.2,0.5l0.9-3.3
	c0.1-0.3,0-0.7-0.4-0.7H19c-0.1,0-0.1-0.1-0.1-0.1l0.1-0.4c0-0.1,0-0.1,0.3-0.1H21.9z M17.7,21.9c-0.8,0-2.2,3.5-2.2,4.7
	c0,0.4,0.2,0.6,0.4,0.6c0.3,0,1-1,1.6-1.9c0.4-0.6,1-1.7,1-2.4C18.5,22.4,18.2,21.9,17.7,21.9z"/>
<path d="M29,21.5c0.1,0,0.2,0.1,0.2,0.2L28,25.1c-0.4,1.3-0.6,1.8-0.6,2c0,0.1,0.1,0.2,0.2,0.2c0.2,0,0.6-0.5,0.9-0.8
	c0-0.1,0.1-0.1,0.2,0l0.2,0.1c0,0,0,0.1,0,0.2c-0.2,0.4-1.1,1.6-2.6,1.6c-0.4,0-0.7-0.2-0.7-0.5c0-0.3,0.6-2,0.8-2.4l-0.2-0.1
	c-0.6,0.9-2,3.1-3.6,3.1c-0.4,0-0.9-0.5-0.8-0.8c0-0.7,0.3-1.4,1-3c0.4-1.1,0.6-1.8,0.6-2c0-0.2-0.1-0.3-0.3-0.3
	c-0.2,0-0.7,0.4-1.1,0.8c0,0.1-0.1,0.1-0.2,0L21.7,23c0,0,0-0.1,0-0.1c0.3-0.4,1.2-1.5,2.7-1.5c0.5,0,0.8,0.4,0.8,0.8
	c0,0.4-0.2,1.2-0.9,2.7c-0.4,1-0.7,1.7-0.7,2c0,0.2,0.1,0.3,0.3,0.3c0.3,0,1.7-1.7,2.1-2.4c0.3-0.5,0.5-0.9,0.7-1.6l0.5-1.5
	c0-0.1,0.1-0.1,0.2-0.1H29z"/>
<path d="M34,26.8c0,0,0.1,0.1,0,0.2c-0.2,0.3-1.3,1.4-2.6,1.4c-0.7,0-1.6-0.6-1.6-1.8c0-1.9,1.7-5.2,4-5.2c0.9,0,1.2,0.6,1.2,0.9
	c0,0.5-0.4,0.9-0.7,0.9c-0.3,0-0.5-0.1-0.6-0.4c-0.1-0.3-0.2-0.5-0.5-0.5c-0.3,0-0.5,0.4-0.8,1.1c-0.4,1-0.6,1.6-0.6,3
	c0,0.5,0.1,1,0.6,1c0.5,0,1.1-0.4,1.3-0.6c0-0.1,0.1-0.1,0.1-0.1L34,26.8z"/>
<path d="M42.1,21.2c0.1,0,0.2,0.1,0.1,0.2c-0.2,0.7-1,2.8-1.1,3.3c-0.1,0.3-0.6,2.1-0.6,2.3c0,0.1,0.1,0.2,0.2,0.2
	c0.3,0,0.8-0.7,0.9-0.9c0.1-0.1,0.1-0.1,0.2-0.1l0.2,0.1c0,0,0,0.1,0,0.2c-0.2,0.3-1,1.7-2.5,1.7c-0.5,0-0.7-0.3-0.7-0.5
	c0-0.2,0.1-0.5,0.6-2.1l-0.1-0.1c-0.6,1-1.7,2.7-3.2,2.7c-0.4,0-1.1-0.6-1.1-1.2c0-2,2-5.7,4.3-5.7c0.7,0,1,0.3,1.2,0.6l0.3-0.5
	c0.1-0.1,0.2-0.2,0.3-0.2H42.1z M37.2,27c0.4,0,1.9-2.1,2.2-2.8c0.2-0.4,0.4-1,0.4-1.5c0-0.4-0.4-0.7-0.7-0.7
	c-0.4,0-0.8,0.3-1.2,1.1c-0.8,1.4-1.1,2.7-1.1,3.4C36.8,26.9,36.9,27,37.2,27z"/>
<path d="M46.5,21.8h1.6c0.1,0,0.1,0,0.1,0.1l-0.1,0.4c0,0.1-0.1,0.1-0.2,0.1h-1.6L44.9,26c-0.1,0.3-0.2,0.7-0.2,0.8
	c0,0.2,0.1,0.3,0.4,0.3c0.3,0,1.3-0.7,1.4-0.8c0-0.1,0.1,0,0.1,0l0.2,0.2c0,0,0.1,0.1,0,0.1c-0.2,0.3-1.6,1.6-3.2,1.6
	c-0.6,0-0.8-0.3-0.8-0.6c0-0.3,0-0.7,0.2-1l1.5-4.2h-1.2c-0.1,0-0.1-0.1-0.1-0.2l0.1-0.4c0-0.1,0.1-0.1,0.2-0.1h1.3l0.5-1.7
	c0.1-0.2,0.1-0.2,0.5-0.2c0.4,0,1.3-0.4,1.4-0.5c0.1,0,0.2-0.1,0.3-0.1c0.1,0,0.2,0.2,0.1,0.3L46.5,21.8z"/>
<path d="M52,26.5c0,0,0.1,0.1,0,0.2c-0.1,0.1-1.1,1.7-3.1,1.7c-0.5,0-0.6-0.2-0.6-0.5c0-0.3,0.3-1,0.9-3l0.4-1.3
	c0.1-0.4,0.2-0.7,0.2-0.9c0-0.1-0.1-0.2-0.2-0.2c-0.3,0-1,0.8-1.2,1.1c-0.1,0.1-0.1,0.1-0.2,0l-0.1-0.1c0,0-0.1-0.1,0-0.1
	c0.1-0.1,1.4-2,3.1-2c0.5,0,0.7,0.3,0.7,0.6c0,0.4-0.2,0.8-0.5,1.8l-0.9,2.4c-0.2,0.6-0.3,0.8-0.3,1c0,0.1,0,0.2,0.2,0.2
	c0.3,0,1.1-0.8,1.2-1c0,0,0.1,0,0.1,0L52,26.5z M52.5,18.6c0,0.5-0.5,1.1-1.1,1.1c-0.6,0-1-0.4-1-1c0-0.5,0.4-1,1-1
	C52.2,17.7,52.5,18.1,52.5,18.6z"/>
<path d="M52.9,25.9c0-1.3,0.4-2.6,1.3-3.6c0.7-0.7,1.4-0.9,2.3-0.9c0.9,0,2.3,0.4,2.3,2.4c0,0.9-0.3,2.6-1.3,3.7
	c-0.6,0.7-1.3,0.9-2.4,0.9C54.1,28.3,52.9,27.7,52.9,25.9z M56.5,25.8c0.5-0.9,1-2.3,1-2.9c0-0.4-0.2-0.7-0.6-0.7
	c-0.6,0-1.1,0.6-1.8,1.9c-0.5,1-0.8,1.9-0.8,2.6c0,0.3,0.2,0.7,0.6,0.7C55.3,27.4,55.8,27,56.5,25.8z"/>
<path d="M59.6,28.2c-0.1,0-0.2-0.1-0.1-0.2l1.1-3.1c0.4-1,0.7-2.1,0.7-2.3c0-0.2-0.1-0.3-0.2-0.3c-0.2,0-0.9,0.6-1.1,0.9
	c0,0-0.1,0.1-0.2,0l-0.2-0.2c-0.1,0-0.1-0.1,0-0.2c0.2-0.3,1.2-1.6,2.9-1.6c0.5,0,0.6,0.4,0.6,0.6c0,0.2-0.3,1.1-0.8,2.1l0.1,0.1
	c0.5-0.7,1.8-2.8,3.4-2.8c0.7,0,1,0.6,1,1.1c0,0.4-0.2,1-0.9,3c-0.4,1.1-0.5,1.4-0.5,1.6s0.1,0.3,0.2,0.3c0.2,0,0.7-0.5,0.9-0.7
	c0-0.1,0.1,0,0.2,0l0.1,0.1c0.1,0,0.1,0.1,0,0.2c-0.2,0.3-1.2,1.4-2.7,1.4c-0.5,0-0.6-0.3-0.6-0.6c0-0.3,0.3-1.2,0.8-2.7
	c0.3-0.7,0.6-1.8,0.6-2.1c0-0.3-0.1-0.4-0.3-0.4c-0.4,0-1.6,1.3-2.2,2.3c-0.4,0.6-0.7,1.1-0.8,1.3l-0.6,1.8c0,0.1-0.1,0.1-0.2,0.1
	H59.6z"/>
<path class="st0" d="M72.8,27.6c0,0.2,0.1,0.2,0.3,0.2h0.3c0,0,0.1,0,0.1,0.1v0.2c0,0,0,0.1-0.1,0.1c-0.1,0-0.6,0-1.1,0
	c-0.3,0-0.9,0-0.9,0c-0.1,0-0.1,0-0.1-0.1v-0.2c0,0,0-0.1,0.1-0.1h0.3c0.2,0,0.3-0.1,0.3-0.2c0-0.1,0-0.9,0-2.1V25
	c0-0.3,0-1.1,0-1.2c0-0.1-0.1-0.3-0.3-0.3h-0.4c0,0-0.1,0-0.1-0.1v-0.2c0,0,0-0.1,0.1-0.1c0.1,0,0.8,0,1.1,0c0.1,0,2.7,0,2.8,0
	c0,0.2,0.2,1.2,0.3,1.3c0,0,0,0.1,0,0.1l-0.2,0.1c0,0-0.1,0-0.1-0.1c-0.1-0.1-0.2-0.4-0.5-0.7c-0.1-0.2-0.3-0.2-0.4-0.2
	c-0.2,0-1.2-0.1-1.4-0.1v2.1c0.1,0,0.7,0,0.8,0c0.2,0,0.3-0.3,0.4-0.5C74,25,74,25,74,25l0.2,0c0,0,0,0,0,0.1c0,0.1,0,0.7,0,0.8
	c0,0.2,0,0.6,0,0.7c0,0,0,0.1-0.1,0.1l-0.2,0c0,0-0.1,0-0.1-0.1c0-0.2-0.1-0.4-0.4-0.5C73.3,26,72.9,26,72.8,26V27.6z"/>
<path class="st0" d="M77.4,27.8c-0.4-0.3-1-1-1-2.1c0-0.5,0.1-1.1,0.6-1.7c0.6-0.8,1.3-0.9,2.1-0.9c0.5,0,1.1,0.1,1.7,0.6
	c0.5,0.4,0.9,1.1,0.9,2.1c0,0.5-0.1,1.1-0.4,1.5c-0.4,0.6-1.1,1-2.2,1C78.6,28.3,77.9,28.2,77.4,27.8z M80.7,25.8
	c0-1.4-1-2.3-1.6-2.3c-0.1,0-0.6-0.1-1.1,0.4c-0.4,0.4-0.6,1.1-0.6,1.7c0,1.7,1.2,2.4,1.7,2.4C80.5,27.9,80.7,26.4,80.7,25.8z"/>
<path class="st0" d="M83.2,23.9c0-0.2,0-0.4-0.4-0.4h-0.2c0,0-0.1,0-0.1-0.1v-0.3c0,0,0-0.1,0.1-0.1c0.1,0,0.8,0,1.1,0
	c0.3,0,0.9,0,1,0c0.1,0,0.1,0,0.1,0.1v0.3c0,0,0,0.1-0.1,0.1h-0.2c-0.4,0-0.5,0.1-0.5,0.2c0,0.1,0,0.5,0,0.9v0.5c0,0.4,0,1.2,0,1.4
	c0,0.3,0.1,0.6,0.3,0.9c0.3,0.3,0.7,0.5,1,0.5c0.4,0,0.8-0.1,1-0.4c0.3-0.3,0.4-0.7,0.4-1.1v-1.5c0-0.5,0-0.9,0-1
	c0-0.2-0.1-0.3-0.5-0.3h-0.1c0,0-0.1,0-0.1-0.1v-0.2c0,0,0-0.1,0.1-0.1c0.1,0,0.7,0,1,0c0.2,0,0.7,0,0.8,0c0.1,0,0.1,0,0.1,0.1v0.2
	c0,0,0,0.1-0.1,0.1h-0.1c-0.4,0-0.4,0.2-0.5,0.3c0,0.1,0,0.9,0,1.1c0,0.1,0,1.3,0,1.6c0,0.6-0.2,1-0.6,1.4c-0.3,0.3-0.7,0.4-1.5,0.4
	c-0.4,0-0.8,0-1-0.1c-0.5-0.2-0.7-0.5-0.9-0.9c-0.1-0.3-0.1-0.8-0.1-1.7V23.9z"/>
<path class="st0" d="M94.1,28c0,0.1,0,0.2-0.2,0.2c-0.1,0-0.2-0.1-0.3-0.1c-0.1-0.1-0.5-0.5-0.9-1.1l-1.1-1.3
	c-0.3-0.3-1.2-1.5-1.3-1.7h0v1.5c0,0.7,0,1.8,0.1,1.9c0,0.3,0.2,0.4,0.3,0.4h0.2c0.1,0,0.1,0,0.1,0.1v0.3c0,0,0,0.1-0.1,0.1
	c-0.1,0-0.5,0-0.8,0c-0.2,0-0.6,0-0.7,0c0,0,0,0,0-0.1v-0.3c0,0,0,0,0,0h0.3c0.1,0,0.3-0.1,0.3-0.3c0-0.1,0-0.9,0-2.2v-1.2
	c0-0.4-0.3-0.6-0.6-0.6h-0.1c0,0-0.1,0-0.1-0.1v-0.3c0,0,0-0.1,0.1-0.1c0,0,0.1,0,0.3,0c0.1,0,0.3,0,0.4,0c0.2,0,0.4,0,0.5,0
	c0.2,0,0.2,0,0.3,0.1c0,0,1.3,1.6,1.5,1.9c0.2,0.2,1.2,1.5,1.4,1.7h0v-0.7c0-0.6,0-1,0-1.3c0-0.3,0-0.9-0.1-1
	c-0.1-0.1-0.2-0.2-0.4-0.2H93c-0.1,0-0.1,0-0.1-0.1v-0.3c0,0,0-0.1,0.1-0.1c0.1,0,0.5,0,0.9,0c0.2,0,0.6,0,0.7,0
	c0.1,0,0.1,0,0.1,0.1v0.2c0,0,0,0.1-0.1,0.1h-0.1c-0.3,0-0.3,0.1-0.4,0.2c-0.1,0.5,0,1.2,0,1.6V28z"/>
<path class="st0" d="M96.8,24.9c0-0.2,0-1,0-1.2c0-0.1-0.1-0.2-0.3-0.2H96c0,0,0,0,0-0.1v-0.3c0,0,0-0.1,0.1-0.1c0.1,0,0.9,0,1.1,0
	c0.2,0,0.9,0,1.2,0c1,0,1.8,0.1,2.4,0.6c0.5,0.4,0.8,1,0.8,1.8c0,0.8-0.2,1.3-0.7,1.9c-0.7,0.7-2,0.7-2.3,0.7c-0.2,0-1.3,0-1.5,0
	c-0.1,0-1,0-1,0c0,0-0.1,0-0.1-0.1v-0.2c0,0,0-0.1,0.1-0.1h0.5c0.1,0,0.2-0.1,0.2-0.2c0-0.1,0-1.6,0-2.2V24.9z M97.6,25.6
	c0,0.1,0,1.2,0,1.6c0,0.1,0,0.3,0.1,0.4c0.1,0.2,0.4,0.2,0.7,0.2c0.7,0,1.4-0.4,1.7-0.8c0.3-0.3,0.4-0.8,0.4-1.4
	c0-0.6-0.2-1.2-0.5-1.5c-0.4-0.4-1-0.7-1.7-0.7c-0.2,0-0.4,0-0.5,0.1c-0.1,0.1-0.1,0.1-0.2,0.3c0,0.3,0,1.2,0,1.3V25.6z"/>
<path class="st0" d="M103.9,26.2l-0.4,1.2c-0.1,0.2,0,0.4,0.2,0.4h0.3c0.1,0,0.1,0,0.1,0.1v0.2c0,0,0,0.1-0.1,0.1
	c-0.1,0-0.7,0-0.8,0c-0.2,0-0.8,0-0.9,0c0,0,0-0.1,0-0.1v-0.2c0,0,0-0.1,0-0.1h0.2c0.2,0,0.4-0.1,0.5-0.2c0.1-0.1,0.6-1.4,0.9-2
	c0.1-0.2,0.7-1.7,0.8-1.8c0-0.1,0.1-0.2,0-0.2c0,0-0.1-0.1,0-0.1c0,0,0-0.1,0.1-0.1c0.2,0,0.5-0.2,0.6-0.3c0,0,0.1-0.1,0.1-0.1
	c0.1,0,0.1,0,0.1,0.1c0.2,0.4,0.7,2,0.9,2.5c0.2,0.5,0.6,1.8,0.7,2c0.1,0.2,0.3,0.3,0.5,0.3h0.2c0,0,0.1,0,0.1,0.1v0.2
	c0,0,0,0.1-0.1,0.1c-0.1,0-0.7,0-1,0c-0.2,0-0.9,0-1,0c-0.1,0-0.1-0.1-0.1-0.1v-0.2c0,0,0-0.1,0.1-0.1h0.2c0.1,0,0.2-0.1,0.2-0.2
	c0-0.2-0.3-1.1-0.4-1.4H103.9z M105.5,25.9l-0.6-1.9c0-0.1,0-0.1-0.1-0.1s-0.1,0-0.1,0.1c0,0.1-0.7,1.8-0.8,1.9H105.5z"/>
<path class="st0" d="M110.3,23.6c-0.2,0-0.9,0-1.4,0.1c-0.3,0.2-0.5,0.6-0.6,0.8c0,0-0.1,0.1-0.1,0.1l-0.2-0.1c-0.1,0-0.1-0.1,0-0.1
	c0.1-0.2,0.3-1.1,0.4-1.3c0-0.1,0.1-0.1,0.1-0.1c0,0,0.1,0,0.1,0l0.1,0.1c0.1,0.1,0.2,0.1,0.4,0.1c0.4,0,0.8,0,1.4,0h0.4
	c0.4,0,1.1,0,1.6,0c0.2,0,0.3,0,0.4-0.1L113,23c0,0,0.1,0,0.1,0c0,0,0.1,0,0.1,0.2c0,0.2,0.2,0.9,0.3,1.2c0,0,0,0.1-0.1,0.1
	l-0.2,0.1c-0.1,0-0.1,0-0.1,0c-0.1-0.3-0.3-0.6-0.5-0.8c-0.3-0.1-1.2-0.1-1.4-0.1v1.8c0,1.2,0,2,0,2.1c0,0.2,0.1,0.3,0.3,0.3h0.4
	c0.1,0,0.1,0,0.1,0.1v0.2c0,0,0,0.1-0.1,0.1c-0.1,0-0.8,0-1.1,0c-0.3,0-1,0-1.1,0c-0.1,0-0.1,0-0.1-0.1v-0.2c0-0.1,0-0.1,0.1-0.1
	h0.4c0.2,0,0.2-0.1,0.3-0.2c0-0.4,0-1,0-1.7V23.6z"/>
<path class="st0" d="M116.3,25.9c0,0.1,0,1.3,0,1.5c0,0.3,0.2,0.4,0.5,0.4h0.2c0.1,0,0.1,0,0.1,0.1v0.3c0,0,0,0.1-0.1,0.1
	c-0.1,0-0.7,0-1.2,0c-0.4,0-1,0-1.1,0c0,0-0.1,0-0.1-0.1v-0.2c0,0,0-0.1,0.1-0.1h0.2c0.3,0,0.5,0,0.5-0.2c0-0.1,0-1.5,0-1.9v-0.5
	c0-0.2,0-1.3,0-1.4c0-0.1-0.1-0.2-0.6-0.2h-0.2c-0.1,0-0.1,0-0.1-0.1v-0.3c0,0,0-0.1,0.1-0.1c0.1,0,0.7,0,1.3,0c0.3,0,0.9,0,1,0
	c0,0,0.1,0,0.1,0.1v0.3c0,0,0,0.1-0.1,0.1h-0.2c-0.3,0-0.4,0-0.4,0.3c0,0.1,0,1.4,0,1.5V25.9z"/>
<path class="st0" d="M119.1,27.8c-0.4-0.3-1-1-1-2.1c0-0.5,0.1-1.1,0.6-1.7c0.6-0.8,1.3-0.9,2.1-0.9c0.5,0,1.1,0.1,1.7,0.6
	c0.5,0.4,0.9,1.1,0.9,2.1c0,0.5-0.1,1.1-0.4,1.5c-0.4,0.6-1.1,1-2.2,1C120.3,28.3,119.6,28.2,119.1,27.8z M122.4,25.8
	c0-1.4-1-2.3-1.6-2.3c-0.1,0-0.6-0.1-1.1,0.4c-0.4,0.4-0.6,1.1-0.6,1.7c0,1.7,1.2,2.4,1.7,2.4C122.3,27.9,122.4,26.4,122.4,25.8z"/>
<path class="st0" d="M129.3,28c0,0.1,0,0.2-0.2,0.2c-0.1,0-0.2-0.1-0.3-0.1c-0.1-0.1-0.5-0.5-0.9-1.1l-1.1-1.3
	c-0.3-0.3-1.2-1.5-1.3-1.7h0v1.5c0,0.7,0,1.8,0.1,1.9c0,0.3,0.2,0.4,0.3,0.4h0.2c0.1,0,0.1,0,0.1,0.1v0.3c0,0,0,0.1-0.1,0.1
	c-0.1,0-0.5,0-0.8,0c-0.2,0-0.6,0-0.7,0c0,0,0,0,0-0.1v-0.3c0,0,0,0,0,0h0.3c0.1,0,0.3-0.1,0.3-0.3c0-0.1,0-0.9,0-2.2v-1.2
	c0-0.4-0.3-0.6-0.6-0.6h-0.1c0,0-0.1,0-0.1-0.1v-0.3c0,0,0-0.1,0.1-0.1c0,0,0.1,0,0.3,0c0.1,0,0.3,0,0.4,0c0.2,0,0.4,0,0.5,0
	c0.2,0,0.2,0,0.3,0.1c0,0,1.3,1.6,1.5,1.9c0.2,0.2,1.2,1.5,1.4,1.7h0v-0.7c0-0.6,0-1,0-1.3c0-0.3,0-0.9-0.1-1s-0.2-0.2-0.4-0.2h-0.2
	c-0.1,0-0.1,0-0.1-0.1v-0.3c0,0,0-0.1,0.1-0.1c0.1,0,0.5,0,0.9,0c0.2,0,0.6,0,0.7,0c0.1,0,0.1,0,0.1,0.1v0.2c0,0,0,0.1-0.1,0.1h-0.1
	c-0.3,0-0.3,0.1-0.4,0.2c-0.1,0.5,0,1.2,0,1.6V28z"/>
</svg>
